<svg xmlns="http://www.w3.org/2000/svg" style="display:none"><defs><path id="a" d="M110.844 73.646L87.78 60.33 43.296 34.645s-4.93-.562-4.93 2.418v104.65c0 2.235 1.758 3.198 3.904 1.96 2.144-1.24 45.51-26.28 45.51-26.28l23.063-13.313 22.17-12.8c2.6-1.502 2.35-3.562.155-4.744-2.194-1.183-22.324-12.89-22.324-12.89z"/></defs><symbol id="icon-android-app-on-google-play" viewBox="-0.26 -0.074 512 168"><path d="M511.48 144.7c0 12.485-10.12 22.61-22.605 22.61H22.61C10.125 167.313 0 157.187 0 144.7V22.61C0 10.125 10.125 0 22.61 0h466.264c12.484 0 22.605 10.125 22.605 22.61V144.7z"/><clipPath id="b"><use xlink:href="#a" overflow="visible"/></clipPath><linearGradient id="c" gradientUnits="userSpaceOnUse" x1="66.932" y1="32.211" x2="66.932" y2="145.514"><stop offset="0" stop-color="#257CB0"/><stop offset=".286" stop-color="#4A93B5"/><stop offset=".767" stop-color="#78BCBB"/><stop offset="1" stop-color="#89CFBD"/></linearGradient><path clip-path="url(#b)" fill="url(#c)" d="M38.365 32.21v113.304L95.5 88.864"/><linearGradient id="d" gradientUnits="userSpaceOnUse" x1="38.365" y1="60.331" x2="110.844" y2="60.331"><stop offset="0" stop-color="#52C1AD"/><stop offset="1" stop-color="#DEE89A"/></linearGradient><path clip-path="url(#b)" fill="url(#d)" d="M110.844 73.646L87.78 60.33 38.366 31.8v.41L95.5 88.864"/><linearGradient id="e" gradientUnits="userSpaceOnUse" x1="74.604" y1="88.863" x2="74.604" y2="145.926"><stop offset="0" stop-color="#EC413D"/><stop offset=".167" stop-color="#DA4452"/><stop offset=".575" stop-color="#B0487A"/><stop offset=".862" stop-color="#954A92"/><stop offset="1" stop-color="#8A4A9D"/></linearGradient><path clip-path="url(#b)" fill="url(#e)" d="M38.365 145.514v.412l49.416-28.533 23.063-13.315L95.5 88.863"/><linearGradient id="f" gradientUnits="userSpaceOnUse" x1="116.35" y1="73.647" x2="116.35" y2="104.078"><stop offset="0" stop-color="#F58879"/><stop offset=".119" stop-color="#F69079"/><stop offset=".713" stop-color="#FCB877"/><stop offset="1" stop-color="#FEC874"/></linearGradient><path clip-path="url(#b)" fill="url(#f)" d="M110.844 73.646L95.5 88.863l15.343 15.215L137.2 88.862"/><path fill="#F9F9F9" d="M398.058 111.01c-2.146 0-4.104-.395-5.877-1.186-1.772-.792-3.262-2.01-4.465-3.652h-.36c.24 1.924.36 3.748.36 5.47v13.56h-4.988V77.46h4.058l.69 4.51h.24c1.284-1.806 2.778-3.107 4.48-3.91s3.66-1.202 5.862-1.202c4.37 0 7.743 1.494 10.117 4.48 2.375 2.986 3.563 7.176 3.563 12.566 0 5.412-1.208 9.615-3.62 12.614-2.416 2.996-5.768 4.493-10.06 4.493zm-.722-29.913c-3.367 0-5.802.933-7.305 2.796-1.502 1.864-2.274 4.83-2.315 8.9v1.11c0 4.632.772 7.944 2.316 9.94s4.02 2.99 7.426 2.99c2.848 0 5.078-1.152 6.692-3.457 1.612-2.304 2.42-5.48 2.42-9.532 0-4.107-.808-7.26-2.42-9.455-1.613-2.197-3.885-3.293-6.812-3.293zM423.293 110.41h-4.99V63.63h4.99v46.78zM451.986 110.41l-.993-4.69h-.24c-1.644 2.065-3.282 3.464-4.916 4.193-1.633.733-3.673 1.098-6.117 1.098-3.267 0-5.827-.84-7.682-2.524s-2.78-4.077-2.78-7.185c0-6.652 5.32-10.14 15.963-10.462l5.595-.18v-2.045c0-2.586-.557-4.496-1.67-5.727-1.11-1.234-2.893-1.85-5.336-1.85-2.748 0-5.855.842-9.32 2.525l-1.535-3.817c1.625-.882 3.402-1.573 5.338-2.074 1.934-.502 3.872-.753 5.817-.753 3.928 0 6.84.87 8.734 2.615 1.893 1.744 2.84 4.54 2.84 8.39v22.486h-3.698zm-11.274-3.517c3.105 0 5.545-.852 7.32-2.555 1.772-1.703 2.66-4.09 2.66-7.157v-2.975l-4.992.21c-3.968.142-6.827.756-8.583 1.85-1.753 1.093-2.63 2.792-2.63 5.097 0 1.803.545 3.177 1.64 4.117 1.092.942 2.62 1.413 4.585 1.413zM458.58 77.46h5.35l7.217 18.79c1.583 4.29 2.566 7.386 2.948 9.29h.24c.26-1.023.808-2.77 1.638-5.248.832-2.476 3.554-10.085 8.162-22.833h5.354l-14.163 37.52c-1.402 3.708-3.04 6.34-4.917 7.895-1.873 1.552-4.174 2.327-6.897 2.327-1.524 0-3.027-.17-4.512-.51v-3.998c1.103.24 2.337.36 3.7.36 3.428 0 5.87-1.923 7.336-5.772l1.833-4.69-13.29-33.133zM305.61 80.52c1.583 1.312 4.89 4.066 4.89 9.307 0 5.097-2.894 7.514-5.79 9.785-.895.895-1.93 1.863-1.93 3.38 0 1.514 1.034 2.342 1.795 2.963l2.482 1.926c3.032 2.552 5.786 4.897 5.786 9.654 0 6.478-6.272 13.023-18.124 13.023-9.996 0-14.818-4.754-14.818-9.857 0-2.48 1.235-5.993 5.307-8.408 4.27-2.62 10.062-2.96 13.162-3.172-.968-1.24-2.068-2.55-2.068-4.682 0-1.17.346-1.86.69-2.69-.762.07-1.52.138-2.21.138-7.302 0-11.437-5.445-11.437-10.818 0-3.17 1.45-6.688 4.41-9.235 3.93-3.24 8.615-3.792 12.34-3.792h14.194l-4.41 2.482h-4.27zm-4.896 30.603c-.55-.072-.897-.072-1.583-.072-.62 0-4.346.142-7.237 1.11-1.516.546-5.928 2.2-5.928 7.096 0 4.89 4.758 8.41 12.133 8.41 6.612 0 10.13-3.176 10.13-7.445 0-3.52-2.274-5.374-7.514-9.097zm2-13.097c1.583-1.587 1.72-3.79 1.72-5.032 0-4.96-2.963-12.68-8.682-12.68-1.794 0-3.722.895-4.825 2.275-1.17 1.446-1.518 3.305-1.518 5.1 0 4.616 2.687 12.267 8.617 12.267 1.723 0 3.58-.827 4.687-1.93zM262.22 110.02c-10.94 0-16.788-8.533-16.788-16.24 0-9.016 7.36-16.72 17.824-16.72 10.11 0 16.44 7.91 16.44 16.24.002 8.115-6.257 16.72-17.476 16.72zm8.6-5.573c1.654-2.204 2.067-4.955 2.067-7.64 0-6.058-2.89-17.616-11.423-17.616-2.27 0-4.54.897-6.19 2.345-2.685 2.405-3.17 5.434-3.17 8.396 0 6.808 3.373 18.02 11.7 18.02 2.684 0 5.437-1.304 7.016-3.503zM224.925 110.02c-10.94 0-16.79-8.533-16.79-16.24 0-9.016 7.363-16.72 17.823-16.72 10.113 0 16.443 7.91 16.443 16.24.002 8.115-6.258 16.72-17.475 16.72zm8.602-5.573c1.65-2.204 2.065-4.955 2.065-7.64 0-6.058-2.892-17.616-11.425-17.616-2.27 0-4.54.897-6.19 2.345-2.685 2.405-3.166 5.434-3.166 8.396 0 6.808 3.37 18.02 11.7 18.02 2.684 0 5.435-1.304 7.017-3.503zM202.878 108.94l-9.894 2.284c-4.014.624-7.61 1.173-11.413 1.173-19.095 0-26.356-14.044-26.356-25.044 0-13.42 10.306-25.868 27.95-25.868 3.736 0 7.33.552 10.58 1.452 5.19 1.453 7.61 3.25 9.133 4.29l-5.744 5.464-2.42.552 1.73-2.768c-2.352-2.28-6.645-6.5-14.805-6.5-10.93 0-19.165 8.305-19.165 20.41 0 13.002 9.41 25.247 24.488 25.247 4.433 0 6.71-.897 8.788-1.73V96.767l-10.444.553 5.532-2.98h14.667l-1.797 1.73c-.488.417-.555.557-.693 1.105-.072.624-.137 2.632-.137 3.323v8.443zM327.474 106.95c-2.284-.21-2.762-.622-2.762-3.323V64.473c.014-.15.023-.302.037-.446.278-2.42.97-2.835 3.116-4.082h-9.896l-5.19 2.49h5.29v.032l-.005-.025v42.709c0 1.382-.273 1.592-1.866 3.665h12.245l2.56-1.518c-1.175-.143-2.353-.21-3.53-.348zM355.624 107.585c-.753.413-1.51.896-2.262 1.237-2.27 1.03-4.606 1.306-6.67 1.306-2.194 0-5.632-.142-9.14-2.68-4.873-3.44-7.003-9.347-7.003-14.498 0-10.647 8.655-15.868 15.73-15.868 2.475 0 5.02.617 7.08 1.925 3.433 2.263 4.326 5.217 4.804 6.798l-16.14 6.53-5.292.41c1.715 8.726 7.623 13.806 14.152 13.806 3.503 0 6.046-1.233 8.38-2.4l-3.64 3.435zm-6.456-20.476c1.303-.48 1.99-.894 1.99-1.855 0-2.746-3.09-5.908-6.803-5.908-2.75 0-7.9 2.13-7.9 9.55 0 1.167.138 2.403.21 3.644l12.503-5.43zM362.255 77.552v4.533h-.55v-4.533h-1.5v-.47h3.55v.47h-1.5zM368.435 82.085V77.51h-.025l-1.396 4.575h-.43l-1.41-4.575h-.017v4.575h-.5v-5.003h.857l1.274 4.044h.018l1.255-4.044h.87v5.003h-.495z"/><path fill="#F9F9FA" d="M168.954 48.015h-3.438c0-.473-.326-1.812-.978-4.018h-4.963c-.673 2.17-1.01 3.51-1.01 4.018h-3.233c0-.28.836-2.57 2.508-6.875 1.672-4.304 2.508-6.675 2.508-7.11h4.06c0 .407.758 2.743 2.273 7.008s2.274 6.59 2.274 6.977zm-4.963-6.07c-1.224-3.695-1.836-5.693-1.836-5.994h-.172c0 .28-.634 2.278-1.9 5.995h3.91zM182.806 48.015h-2.653c0-.294-.985-1.844-2.954-4.65-2.063-2.96-3.238-4.98-3.524-6.07h-.172c.18 1.568.27 2.986.27 4.254 0 1.768.05 3.924.15 6.466h-2.644c.107-2.22.16-4.658.16-7.315 0-2.613-.053-4.837-.16-6.67h3.19c0 .38.884 1.895 2.653 4.544 1.883 2.814 2.965 4.723 3.244 5.726h.16c-.17-1.597-.257-3.03-.257-4.297 0-1.94-.05-3.932-.15-5.973h2.686c-.1 1.776-.15 4-.15 6.67 0 2.692.05 5.13.15 7.315zM198.375 40.538c0 2.034-.652 3.81-1.955 5.328-1.304 1.52-3.13 2.277-5.48 2.277-1.06 0-2.52-.043-4.382-.13.093-2.162.14-4.6.14-7.314 0-2.607-.047-4.83-.14-6.672h1.88c.308 0 .766-.01 1.375-.032.608-.02 1.006-.032 1.192-.032 2.585 0 4.46.645 5.624 1.934 1.163 1.29 1.745 2.835 1.745 4.64zm-2.932.462c0-1.375-.4-2.533-1.203-3.476-.802-.94-2.027-1.412-3.674-1.412-.308 0-.73.032-1.268.097.07 1.432.107 2.928.107 4.49 0 1.71.036 3.408.107 5.09.465.094.93.14 1.396.14 1.54 0 2.68-.478 3.42-1.434s1.115-2.12 1.115-3.496zM212.732 48.015h-3.18c-.83-2.535-1.468-4.1-1.912-4.694-.444-.594-1.16-.89-2.148-.89-.416 0-.813.003-1.192.01 0 1.84.032 3.7.097 5.575h-2.986c.094-2.163.14-4.602.14-7.315 0-2.606-.046-4.83-.14-6.67h1.86c.214 0 .663-.012 1.347-.033.684-.02 1.316-.032 1.896-.032 3.287 0 4.93 1.124 4.93 3.373 0 1.783-.937 3.025-2.813 3.728v.16c.723.2 1.357.766 1.9 1.692.544.927 1.278 2.626 2.202 5.097zm-4.028-9.883c0-1.425-.917-2.138-2.75-2.138-.673 0-1.268.05-1.783.15.08 1.11.12 2.557.12 4.34.393.015.726.02.998.02 2.277.002 3.416-.79 3.416-2.372zM228.13 40.764c0 2.198-.673 4.02-2.02 5.468-1.347 1.446-3.012 2.17-4.995 2.17-1.89 0-3.474-.664-4.748-1.993-1.275-1.33-1.912-3.018-1.912-5.065 0-2.198.673-4.02 2.02-5.468 1.346-1.446 3.01-2.17 4.995-2.17 1.89 0 3.473.662 4.748 1.987 1.275 1.325 1.912 3.014 1.912 5.07zm-2.964.31c0-1.496-.383-2.71-1.15-3.64-.766-.932-1.71-1.397-2.835-1.397-1.045 0-1.933.47-2.663 1.407S217.42 39.567 217.42 41c0 1.49.385 2.7 1.155 3.636.77.935 1.713 1.402 2.83 1.402 1.046 0 1.935-.47 2.665-1.413.73-.94 1.096-2.125 1.096-3.55zM234.204 48.015h-3.04c.093-2.22.14-4.658.14-7.315 0-2.614-.047-4.838-.14-6.67h3.04c-.093 1.804-.14 4.027-.14 6.67 0 2.7.047 5.138.14 7.315zM249.774 40.538c0 2.034-.652 3.81-1.955 5.328-1.305 1.52-3.13 2.277-5.48 2.277-1.06 0-2.52-.043-4.383-.13.093-2.162.14-4.6.14-7.314 0-2.607-.047-4.83-.14-6.672h1.88c.308 0 .766-.01 1.375-.032.608-.02 1.006-.032 1.192-.032 2.585 0 4.46.645 5.624 1.934 1.164 1.29 1.746 2.835 1.746 4.64zm-2.932.462c0-1.375-.4-2.533-1.203-3.476-.803-.94-2.028-1.412-3.675-1.412-.308 0-.73.032-1.268.097.07 1.432.107 2.928.107 4.49 0 1.71.036 3.408.107 5.09.466.094.932.14 1.397.14 1.54 0 2.68-.478 3.42-1.434s1.115-2.12 1.115-3.496zM270.43 48.015h-3.438c0-.473-.326-1.812-.98-4.018h-4.962c-.673 2.17-1.01 3.51-1.01 4.018h-3.232c0-.28.836-2.57 2.508-6.875s2.508-6.675 2.508-7.11h4.06c0 .407.76 2.743 2.273 7.008s2.273 6.59 2.273 6.977zm-4.963-6.07c-1.225-3.695-1.838-5.693-1.838-5.994h-.173c0 .28-.633 2.278-1.9 5.995h3.91zM282.96 37.69c0 1.713-.636 2.977-1.907 3.793-1.27.816-2.83 1.225-4.678 1.225-.337 0-.576-.007-.72-.02 0 1.346.04 3.12.118 5.327h-3.02c.094-2.07.14-4.508.14-7.315 0-2.578-.046-4.802-.14-6.67h1.87c.265 0 .773-.012 1.525-.033s1.403-.032 1.955-.032c1.36 0 2.51.308 3.448.924s1.41 1.548 1.41 2.8zm-2.77.592c0-1.532-1.018-2.3-3.052-2.3-.51 0-1.046.055-1.61.162.078 1.354.117 2.886.117 4.598.18.015.387.02.623.02 2.614.002 3.92-.825 3.92-2.48zM295.844 37.69c0 1.713-.636 2.977-1.906 3.793-1.27.816-2.83 1.225-4.68 1.225-.336 0-.575-.007-.72-.02 0 1.346.04 3.12.12 5.327h-3.02c.093-2.07.14-4.508.14-7.315 0-2.578-.047-4.802-.14-6.67h1.87c.264 0 .772-.012 1.524-.033s1.403-.032 1.955-.032c1.36 0 2.51.308 3.448.924s1.41 1.548 1.41 2.8zm-2.77.592c0-1.532-1.018-2.3-3.052-2.3-.51 0-1.046.055-1.61.162.078 1.354.117 2.886.117 4.598.178.015.386.02.622.02 2.614.002 3.92-.825 3.92-2.48zM316.91 40.764c0 2.198-.674 4.02-2.02 5.468s-3.013 2.17-4.996 2.17c-1.89 0-3.474-.664-4.748-1.993-1.274-1.33-1.912-3.018-1.912-5.065 0-2.198.673-4.02 2.02-5.468s3.012-2.17 4.995-2.17c1.89 0 3.473.662 4.747 1.987s1.912 3.014 1.912 5.07zm-2.966.31c0-1.496-.383-2.71-1.15-3.64s-1.71-1.397-2.835-1.397c-1.047 0-1.935.47-2.665 1.407S306.2 39.567 306.2 41c0 1.49.384 2.7 1.154 3.636.77.935 1.713 1.402 2.83 1.402 1.046 0 1.934-.47 2.664-1.413.73-.94 1.096-2.125 1.096-3.55zM331.47 48.015h-2.654c0-.294-.984-1.844-2.954-4.65-2.062-2.96-3.237-4.98-3.523-6.07h-.173c.18 1.568.27 2.986.27 4.254 0 1.768.05 3.924.15 6.466h-2.644c.107-2.22.16-4.658.16-7.315 0-2.613-.053-4.837-.16-6.67h3.19c0 .38.885 1.895 2.653 4.544 1.884 2.814 2.965 4.723 3.244 5.726h.16c-.17-1.597-.257-3.03-.257-4.297 0-1.94-.05-3.932-.15-5.973h2.686c-.102 1.776-.15 4-.15 6.67 0 2.692.05 5.13.15 7.315z"/></symbol><symbol id="icon-bullet" viewBox="0 0 3 3"><path fill="#4B4B4B" d="M0 1.2C0 .4.6 0 1.2 0c.7 0 1.2.4 1.2 1.2 0 .7-.6 1.2-1.2 1.2C.6 2.3 0 1.8 0 1.2z"/></symbol><symbol id="icon-call-contact" viewBox="0 0 36 36"><path fill="#FFF" d="M18 1.6C9 1.6 1.6 9 1.6 18S8.9 34.4 18 34.4c9 0 16.4-7.3 16.4-16.4S27 1.6 18 1.6z"/><path fill="#46505D" d="M18 36C8.1 36 0 27.9 0 18S8.1 0 18 0s18 8.1 18 18-8.1 18-18 18zm0-34.4C9 1.6 1.6 9 1.6 18S8.9 34.4 18 34.4c9 0 16.4-7.3 16.4-16.4S27 1.6 18 1.6z"/><path fill="#B3DBF4" d="M11.5 8.5c0-3 2.5-3.1 5.5-3.1h2.2c3 0 5.5.3 5.5 3.1v2.2H11.5V8.5zM24.5 27.9c0 3-2.5 3.1-5.5 3.1h-2.2c-3 0-5.5-.3-5.5-3.1v-2.2h13.2v2.2z"/><path fill="#46505D" d="M19.2 31.5H17c-2.5 0-5.9 0-5.9-3.6v-2.2c0-.3.3-.5.5-.5h13.2c.3 0 .5.3.5.5v2.2c-.3 3.6-3.7 3.6-6.1 3.6zM12 26.2v1.7c0 2.2 1.4 2.6 4.8 2.6H19c3.4 0 4.8-.4 4.8-2.6v-1.7H12z"/><path fill="none" d="M11.5 10.4h12.8"/><path fill="#46505D" d="M24.3 11H11.5c-.3 0-.5-.3-.5-.5s.3-.5.5-.5h12.9c.3 0 .5.3.5.5s-.3.5-.6.5z"/><path fill="none" d="M11.5 25.6h13"/><path fill="#46505D" d="M24.5 26.2h-13c-.3 0-.5-.3-.5-.5 0-.3.3-.5.5-.5h13.2c.3 0 .5.3.5.5s-.4.5-.7.5z"/><circle fill="#46505D" cx="18" cy="28.3" r="1.4"/><path fill="#46505D" d="M19.8 8.1c0 .3-.3.5-.5.5h-2.6c-.3 0-.5-.3-.5-.5 0-.4.3-.5.5-.5h2.6c.3 0 .5.1.5.5z"/><g><path fill="#46505D" d="M19.2 31.8H17c-2.6 0-6.3 0-6.3-3.9v-19C10.7 5 14.2 5 17 5h2.2c2.6 0 6.3 0 6.3 3.9v19c-.1 3.9-3.7 3.9-6.3 3.9zM16.8 6.4c-3.4 0-4.7.4-4.7 2.3v19c0 2 1.2 2.3 4.7 2.3H19c3.4 0 4.7-.4 4.7-2.3V8.9c0-2-1.2-2.3-4.7-2.3 0-.2-2.2-.2-2.2-.2z"/><path fill="none" d="M11.5 10.4h13"/><path fill="#46505D" d="M24.5 11h-13c-.3 0-.5-.3-.5-.5s.3-.5.5-.5h13.2c.3 0 .5.3.5.5s-.4.5-.7.5z"/><path fill="none" d="M11.5 25.6h13"/><path fill="#46505D" d="M24.5 26.2h-13c-.3 0-.5-.3-.5-.5 0-.3.3-.5.5-.5h13.2c.3 0 .5.3.5.5s-.4.5-.7.5z"/><circle fill="#46505D" cx="18" cy="28.3" r="1.4"/><path fill="#46505D" d="M19.8 8.1c0 .3-.3.5-.5.5h-2.6c-.3 0-.5-.3-.5-.5 0-.4.3-.5.5-.5h2.6c.3 0 .5.1.5.5z"/></g></symbol><symbol id="icon-canaccord-ribbon-logo" viewBox="0 0 446 103"><linearGradient id="a" gradientUnits="userSpaceOnUse" x1="365.107" y1="40.708" x2="522.282" y2="40.708"><stop offset="0" stop-color="#C07529"/><stop offset=".069" stop-color="#C57C2C"/><stop offset=".499" stop-color="#DFA543"/><stop offset=".823" stop-color="#F3C458"/><stop offset="1" stop-color="#FDD161"/></linearGradient><path fill="url(#a)" d="M365.1.7h80.7l-23.9 40 23.9 40h-80.7"/><linearGradient id="b" gradientUnits="userSpaceOnUse" x1="312.44" y1="40.708" x2="469.615" y2="40.708" gradientTransform="matrix(-1 0 0 1 393.333 0)"><stop offset="0" stop-color="#C07529"/><stop offset=".069" stop-color="#C57C2C"/><stop offset=".499" stop-color="#DFA543"/><stop offset=".823" stop-color="#F3C458"/><stop offset="1" stop-color="#FDD161"/></linearGradient><path fill="url(#b)" d="M80.9.7H.2l23.9 40-23.9 40h80.7"/><path fill="#FCEE21" d="M405.2 29.3L365.1.7v42M40.8 29.3L80.9.7v42"/><path fill="#FDD161" d="M40.7 29.3h364.7v73H40.7z"/><g fill="#535049"><path d="M274.6 47.2h.4v41.1h-.4zM296.9 64.2h-1c-.2-2.7-2.1-4.6-4.9-4.6-5 0-5.8 5.7-5.8 9.6 0 4.1.8 9.1 5.5 9.2 1.9.1 3.9-1.1 3.8-3.8v-2.2c0-1-.3-1.4-1-1.4h-1.1v-.8h6.8v.8h-.7c-.9 0-1 .4-1 1.7V79h-.8c-.1-.3-.2-.7-.9-.7-.9 0-2.2.8-5.1.8-6.6 0-8.8-4.5-8.8-10.4 0-5.4 3.3-10 9-10 1.4 0 2.3.2 3 .4.7.2 1.2.4 1.6.4.3 0 .4-.3.5-.7h1v5.4zM309.8 71.2c-.1-3.3-.7-5.6-2.8-5.6-2.1 0-2.8 2.4-2.9 5.6h5.7zm-5.7.8c0 4.6.7 6.4 3.2 6.4 2.6 0 4.2-1.7 4.2-4.3h1.1c0 3.2-2.3 5.1-5.4 5.1-4.2 0-6.3-3.3-6.3-7.2 0-3.9 2.1-7.2 6.3-7.2 3.9 0 5.7 3.8 5.6 7.2h-8.7zM314.6 77.9h1.3c1 0 1-.5 1-1.6v-7.5c0-2.3-.1-2.9-.9-2.9h-1.4v-.8h1.3c1.9 0 3.1-.2 3.6-.4v2.4h.1c1.1-1.6 2.5-2.4 4.5-2.4 2.6 0 4.2 1.3 4.2 4v7c0 1.7 0 2.2.9 2.2h1.2v.8h-7v-.8h1c1 0 1.1-.5 1.1-2.2v-6.4c0-1.6-.5-3.3-2.6-3.3-2.8 0-3.3 3-3.3 5.2v5c0 1.2.2 1.6 1 1.6h1.2v.8h-7.1v-.7zM330.6 65.2h1.3c1.4 0 3.3-.2 3.9-.4-.1.9-.2 1.8-.2 2.7v6.8c0 2.1.6 3.6 2.5 3.6 2.1 0 3.3-2 3.3-5.1v-4.3c0-2.3 0-2.5-1-2.5h-1.2v-.8h1.3c1.4 0 3.3-.2 3.9-.4-.1.9-.2 1.8-.2 2.7v8.3c0 1.7 0 2.2.9 2.2h1.2v.8H344c-1 0-1.9.1-2.4.1v-2.2h-.1c-.8 1.6-2.3 2.5-4.3 2.5-3.7 0-4.4-1.5-4.4-4.4v-6c0-2.3-.1-2.9-.9-2.9h-1.4v-.7zM350.6 58.8c1 0 1.9.8 1.9 1.9 0 1-.8 1.9-1.9 1.9-1 0-1.9-.9-1.9-1.9.1-1.1 1-1.9 1.9-1.9m-3.5 19.1h1.2c.7 0 1-.3 1-1.9v-8.3c0-1.4 0-1.8-1-1.8h-1.2v-.8h1.7c1.3 0 2.8-.2 3.4-.4-.1.5-.1 1.4-.1 2.8V76c0 1.5.3 1.9 1 1.9h1.2v.8h-7.1v-.8zM363.3 65.9h-3.2v10.6c0 .8.4 1.3 1.1 1.3 1.1 0 1.3-1.1 1.3-2.5v-.4h1.1v.5c0 2.2-.4 3.7-3.3 3.7-2.2 0-3-1.1-3-3.2v-10H355v-.8c2.6-.1 4-2.3 4.1-4.7h.9v4.7h3.2v.8zM364.4 65.2h6.6v.8h-1c-.5 0-1 .1-1 .7 0 .4.2.8.5 1.7l2.7 7.1h.1l2.7-7c.3-.8.5-1.5.5-1.8 0-.5-.3-.6-.8-.6h-.9v-.8h4.3v.8h-.3c-.6 0-.7.2-1.9 3.2L371.4 81c-.8 1.9-1.5 4.2-3.9 4.2-1.3 0-2.6-.7-2.6-2.2 0-1 .6-1.8 1.6-1.8.9 0 1.5.5 1.5 1.4 0 .6-.4.8-.4 1 0 .2.2.3.6.3.9 0 1.6-1.4 1.9-2.2l.9-2.4-4.3-11c-.6-1.6-.8-2.2-1.6-2.2h-.6v-.9zM71.7 76.1c-2.9-2.6-3.7-5.9-3.7-8.9 0-2 .6-5.6 3.5-8.2 2.2-2 5-3.2 9.5-3.2 1.9 0 3 .1 4.4.3 1.1.1 2.1.4 3 .5.3 0 .5.2.5.4s-.1.6-.2 1.7c-.1 1 0 2.6-.1 3.2 0 .5-.1.7-.4.7-.2 0-.3-.2-.3-.7 0-.9-.4-2-1.2-2.8-1-1-3.3-1.9-6.1-1.9-2.6 0-4.3.7-5.6 1.9-2.2 2-2.8 4.9-2.8 7.8 0 7.1 5.4 10.7 9.5 10.7 2.7 0 4.3-.3 5.5-1.7.5-.6.9-1.4 1-2 .1-.5.1-.6.4-.6.2 0 .3.2.3.4 0 .4-.4 3-.7 4-.1.5-.3.7-.8.9-1.2.5-3.5.7-5.4.7-4.1 0-7.5-.9-10.3-3.2M102.6 69.6c.1 0 .2-.1.1-.2L100 62c0-.1-.1-.3-.2-.3s-.2.1-.2.3L97 69.4c0 .1 0 .2.1.2h5.5zm-6.1 1.5c-.2 0-.2.1-.3.2l-1.6 4.3c-.3.8-.5 1.5-.5 1.8 0 .5.3.9 1.2.9h.4c.4 0 .5.1.5.2 0 .2-.2.3-.5.3-1 0-2.3-.1-3.2-.1-.3 0-2 .1-3.5.1-.4 0-.6-.1-.6-.3 0-.2.1-.2.4-.2.3 0 .7 0 .9-.1 1.4-.2 1.9-1.2 2.6-2.7l7.5-18.9c.4-.9.5-1.2.8-1.2.3 0 .5.3.8 1 .7 1.6 5.5 13.9 7.4 18.5 1.1 2.7 2 3.1 2.6 3.3.4.1.9.1 1.3.1.2 0 .4 0 .4.2s-.3.3-1.4.3c-1.1 0-3.3 0-5.7-.1-.5 0-.9 0-.9-.2s.1-.2.4-.3c.2-.1.4-.3.3-.7l-2.4-6.4c-.1-.2-.2-.2-.3-.2h-6.6z"/><path d="M117.1 74.8c.1 2.3.4 3.1 1 3.3.5.2 1.1.2 1.6.2.3 0 .5.1.5.2 0 .2-.3.3-.7.3-2 0-3.2-.1-3.7-.1-.3 0-1.7.1-3.2.1-.4 0-.7 0-.7-.3 0-.2.2-.2.5-.2.4 0 .9 0 1.3-.2.8-.2.9-1.1.9-3.7l.3-17.8c0-.6.1-1 .4-1 .3 0 .6.4 1.1.9.4.4 4.9 5.3 9.3 9.6 2 2 6.1 6.4 6.6 6.8h.1l-.3-13.5c0-1.8-.3-2.4-1-2.7-.4-.2-1.2-.2-1.6-.2-.4 0-.5-.1-.5-.3 0-.2.3-.3.8-.3 1.6 0 3 .1 3.6.1.3 0 1.5-.1 2.9-.1.4 0 .7 0 .7.3 0 .2-.2.3-.5.3s-.5 0-.9.1c-.8.2-1.1.9-1.1 2.6l-.3 18.9c0 .7-.1.9-.4.9-.3 0-.7-.3-1-.7-1.9-1.8-5.7-5.7-8.9-8.8-3.3-3.2-6.6-7-7.1-7.6h-.1l.4 12.9zM150.3 69.6c.1 0 .2-.1.1-.2l-2.7-7.4c0-.1-.1-.3-.2-.3s-.2.1-.2.3l-2.8 7.4c0 .1 0 .2.1.2h5.7zm-6.2 1.5c-.2 0-.2.1-.3.2l-1.6 4.3c-.3.8-.4 1.5-.4 1.8 0 .5.3.9 1.2.9h.4c.4 0 .4.1.4.2 0 .2-.2.3-.5.3-1 0-2.3-.1-3.2-.1-.3 0-2 .1-3.5.1-.4 0-.6-.1-.6-.3 0-.2.1-.2.4-.2.3 0 .7 0 .9-.1 1.4-.2 1.9-1.2 2.5-2.7l7.5-18.9c.4-.9.5-1.2.8-1.2.3 0 .5.3.8 1 .7 1.6 5.5 13.9 7.4 18.5 1.1 2.7 2 3.1 2.6 3.3.5.1.9.1 1.3.1.2 0 .4 0 .4.2s-.3.3-1.4.3c-1.1 0-3.3 0-5.7-.1-.5 0-.9 0-.9-.2s.1-.2.4-.3c.2-.1.4-.3.3-.7l-2.4-6.4c-.1-.2-.1-.2-.3-.2h-6.5zM163.5 76.1c-2.9-2.6-3.7-5.9-3.7-8.9 0-2 .6-5.6 3.5-8.2 2.2-2 5-3.2 9.5-3.2 1.9 0 3 .1 4.4.3 1.1.1 2.1.4 3 .5.3 0 .4.2.4.4s-.1.6-.1 1.7c-.1 1 0 2.6-.1 3.2 0 .5-.1.7-.4.7-.2 0-.3-.2-.3-.7 0-.9-.4-2-1.2-2.8-1-1-3.3-1.9-6.1-1.9-2.6 0-4.3.7-5.6 1.9-2.2 2-2.8 4.9-2.8 7.8 0 7.1 5.4 10.7 9.5 10.7 2.7 0 4.3-.3 5.5-1.7.5-.6.9-1.4 1-2 .1-.5.2-.6.4-.6s.3.2.3.4c0 .4-.4 3-.7 4-.1.5-.3.7-.8.9-1.2.5-3.5.7-5.4.7-4.1 0-7.6-.9-10.3-3.2M186.6 76.1c-2.9-2.6-3.7-5.9-3.7-8.9 0-2 .6-5.6 3.5-8.2 2.2-2 5-3.2 9.5-3.2 1.9 0 3 .1 4.4.3 1.1.1 2.1.4 3 .5.3 0 .4.2.4.4s-.1.6-.2 1.7c-.1 1 0 2.6-.1 3.2 0 .5-.1.7-.4.7-.2 0-.3-.2-.3-.7 0-.9-.4-2-1.2-2.8-1-1-3.3-1.9-6.1-1.9-2.6 0-4.3.7-5.6 1.9-2.2 2-2.8 4.9-2.8 7.8 0 7.1 5.4 10.7 9.5 10.7 2.7 0 4.3-.3 5.5-1.7.5-.6.9-1.4 1-2 .1-.5.1-.6.4-.6.2 0 .3.2.3.4 0 .4-.4 3-.7 4-.2.5-.3.7-.8.9-1.2.5-3.5.7-5.4.7-4 0-7.4-.9-10.2-3.2M226.4 68.1c0-6.7-3.9-10.9-8.8-10.9-3.4 0-7.4 1.9-7.4 9.4 0 6.2 3.5 11.2 9.2 11.2 2.1 0 7-1 7-9.7m-20.4-.5c0-5.1 3.4-11.8 12.4-11.8 7.5 0 12.1 4.3 12.1 11.2 0 6.9-4.8 12.3-12.4 12.3-8.6 0-12.1-6.4-12.1-11.7M239.5 67.3c0 .3.1.4.3.5.6.2 1.5.3 2.3.3 1.2 0 1.6-.1 2.1-.5.9-.7 1.8-2 1.8-4.5 0-4.3-2.8-5.5-4.6-5.5-.7 0-1.3 0-1.6.1-.2.1-.3.2-.3.4v9.2zm-3.5-2.4c0-4.6 0-5.4-.1-6.4s-.3-1.5-1.3-1.7c-.2-.1-.8-.1-1.2-.1-.3 0-.5-.1-.5-.3 0-.2.2-.3.7-.3 1.6 0 3.5.1 4.1.1 1 0 3.3-.1 4.2-.1 1.9 0 3.9.2 5.5 1.3.8.6 2 2.1 2 4.1 0 2.2-.9 4.3-4 6.7 2.7 3.4 4.7 6 6.5 7.9 1.7 1.7 2.9 2 3.4 2 .3.1.6.1.8.1.2 0 .4.1.4.2 0 .2-.2.3-.6.3H253c-1.7 0-2.4-.1-3.2-.6-1.3-.7-2.4-2.1-4.1-4.4-1.2-1.7-2.6-3.7-3-4.1-.2-.2-.3-.2-.5-.2l-2.6-.1c-.1 0-.2.1-.2.2v.4c0 2.8 0 5.2.2 6.4.1.9.3 1.5 1.2 1.6.4.1 1.1.1 1.5.1.2 0 .4.1.4.2 0 .2-.2.3-.6.3-1.7 0-4-.1-4.4-.1-.6 0-2.5.1-3.7.1-.4 0-.6-.1-.6-.3 0-.1.1-.2.5-.2s.8-.1 1.1-.1c.6-.1.7-.8.9-1.6.2-1.3.2-3.6.2-6.4v-5z"/><path d="M274.8 58.4c-3.2-2.1-7.3-2.1-10.5-2.1-1.8 0-3.7.1-4.6.1-.8 0-2.7-.1-4.3-.1-.5 0-.7.1-.7.3 0 .2.2.3.5.3.4 0 .9 0 1.2.1 1 .2 1.2.7 1.3 1.7.1 1 .1 1.8.1 6.4v5.3c0 2.8 0 5.1-.2 6.4-.1.9-.3 1.5-.9 1.6-.3.1-.6.1-1.1.1-.4 0-.5.1-.5.2 0 .2.2.3.6.3 1.2 0 3.1-.1 3.8-.1 1.5 0 4.2.4 6.4.4 4.3 0 7.2-1.3 8.9-2.5V72c-.4 1.4-1 2.7-2.1 3.6-1.8 1.6-3.8 2.2-6.9 2.2-2.4 0-3.5-.6-3.9-1.2-.2-.3-.3-1.5-.3-2.3 0-.6-.1-2.9-.1-6.1v-3.8-6c0-.3.1-.5.4-.6.2-.1 1.3-.2 1.9-.2 2.3 0 5.8.4 8.5 3 .9.8 1.9 2.3 2.4 4.3v-6.5z"/></g></symbol><symbol id="icon-left-arrow-orange" viewBox="0 0 8 13"><path fill="#F17E3B" d="M7.4 11.2c.4.4.4 1 0 1.3-.4.4-1 .4-1.3 0L.8 7.2c-.4-.4-.4-1 0-1.3L6 .6c.4-.4 1-.4 1.3 0 .4.4.4 1 0 1.3L3.1 6.5l4.3 4.7z"/></symbol><symbol id="icon-mail-social-share-hover" viewBox="14 -15 32 32"><circle fill="#464F5C" cx="30" cy="1" r="15.4"/><path fill="#A5AEB3" d="M30 16.9c-8.8 0-15.9-7.1-15.9-15.9S21.2-14.9 30-14.9 45.9-7.8 45.9 1 38.8 16.9 30 16.9zm0-30.8c-8.2 0-14.9 6.7-14.9 14.9S21.8 15.9 30 15.9 44.9 9.2 44.9 1 38.2-13.9 30-13.9z"/><path fill="#FCFCFC" d="M32.2 1l6 6.7H21.8l6-6.7L30 2.8 32.2 1zm5.9-6.7H21.9L30 1.4l8.1-7.1zM33 .2l5.9 6.6V-5L33 .2zM21.1-5V6.9L27 .2 21.1-5z"/></symbol><symbol id="icon-mail-social-share" viewBox="0 0 161 161"><circle fill="#F3F3F3" cx="80.5" cy="80.5" r="77.5" class="circle-fill"/><path fill="#A5AEB3" d="M80.5 160.5c-44.1 0-80-35.9-80-80s35.9-80 80-80 80 35.9 80 80-35.9 80-80 80zm0-155c-41.4 0-75 33.7-75 75 0 41.4 33.7 75 75 75 41.4 0 75-33.7 75-75 0-41.4-33.6-75-75-75z" class="circle-stroke"/><path fill="#464F5C" d="M91.4 80.3l30.3 33.9H39.3l30.3-33.9 10.9 9.5 10.9-9.5zm29.8-33.5H39.8l40.7 35.6 40.7-35.6zM95.6 76.6l29.8 33.4V50.5L95.6 76.6zM35.5 50.5V110l29.8-33.4-29.8-26.1z" class="icon"/></symbol><symbol id="icon-password-icon" viewBox="0 0 70 85"><path fill="#FFF" d="M64 30h-9v-7C55 8.5 48.3 0 35 0S15 8.5 15 23v7H5c-2.8 0-5 3.2-5 6v39c0 2.8 2.1 5.7 4.8 6.5l6 1.9c2.6.8 7 1.5 9.8 1.5h29c2.8 0 7.1-.7 9.8-1.5l6-1.9c2.6-.8 4.8-3.8 4.8-6.5V36c-.2-2.8-3.4-6-6.2-6zm-39-9c0-7.2 4-11 10-11s10 3.8 10 11v9H25v-9z"/></symbol><symbol id="icon-pattern-bottom-darkorange" viewBox="0 0 11.5 6"><path fill="#EF6228" d="M5.8 6l5.7-4V0H0v2"/></symbol><symbol id="icon-pattern-bottom-kidsgreen" viewBox="0 0 11.5 6"><path fill="#82CC6B" d="M5.8 6l5.7-4V0H0v2"/></symbol><symbol id="icon-pattern-bottom-kidsyellow" viewBox="0 0 11.5 6"><path fill="#FEE58B" d="M5.8 6l5.7-4V0H0v2"/></symbol><symbol id="icon-pattern-bottom-kidsyellowalmostwhite" viewBox="0 0 11.5 6"><path fill="#FFFBED" d="M5.8 6l5.7-4V0H0v2"/></symbol><symbol id="icon-pattern-bottom-lightorange" viewBox="0 0 11.5 6"><path fill="#F47533" d="M5.8 6l5.7-4V0H0v2"/></symbol><symbol id="icon-pattern-bottom-orange" viewBox="0 0 2018.8 23"><path fill="#EF6228" d="M.2 0v22.7L23.7 7.5 45.6 23l22-15.5L89.3 23l22-15.5L133.2 23l22-15.5 22 15.5 21.9-15.5L220.9 23l21.9-15.5 22 15.5 22-15.5L308.7 23l21.7-15.5 22 15.5 22-15.5L396.3 23l22-15.5L440 23l22-15.5L483.9 23l22-15.5 22 15.5 21.7-15.5L571.5 23l22-15.5 22 15.5 21.7-15.5L659.1 23l22-15.5 22 15.5L725 7.5 746.8 23l21.9-15.5 22 15.5 22-15.5L834.6 23l21.7-15.5 22 15.5 22-15.5L922.2 23l22-15.5L965.9 23l22-15.5 21.9 15.5 22-15.5 21.7 15.5 22-15.5 21.9 15.5 22-15.5 22 15.5 21.7-15.5L1185 23l22-15.5 22 15.5 21.7-15.5 22 15.5 21.9-15.5 22 15.5 21.7-15.5 22 15.5 21.9-15.5 22 15.5 21.7-15.5 22 15.5 21.9-15.5 22 15.5 21.7-15.5 22 15.5 21.9-15.5 22 15.5 21.7-15.5 22 15.5L1645 7.5l22 15.5 21.7-15.5 22 15.5 22-15.5 21.9 15.5 21.7-15.5 22 15.5 22-15.5 21.9 15.5 21.7-15.5 22 15.5 22-15.5 21.7 15.5 21.9-15.5 22 15.5 22-15.5 23.5 15.2V0"/></symbol></svg>