<?xml version="1.0" encoding="utf-8"?>
<!-- Generator: Adobe Illustrator 18.1.1, SVG Export Plug-In . SVG Version: 6.00 Build 0)  -->
<svg version="1.1" id="Layer_1" xmlns="http://www.w3.org/2000/svg" xmlns:xlink="http://www.w3.org/1999/xlink" x="0px" y="0px"
	 viewBox="0 0 36 36" enable-background="new 0 0 36 36" xml:space="preserve">
<path fill="#FFFFFF" d="M18,1.6C9,1.6,1.6,9,1.6,18S8.9,34.4,18,34.4c9,0,16.4-7.3,16.4-16.4S27,1.6,18,1.6z"/>
<path fill="#46505D" d="M18,36C8.1,36,0,27.9,0,18S8.1,0,18,0s18,8.1,18,18S27.9,36,18,36z M18,1.6C9,1.6,1.6,9,1.6,18
	S8.9,34.4,18,34.4c9,0,16.4-7.3,16.4-16.4S27,1.6,18,1.6z"/>
<path fill="#B3DBF4" d="M11.5,8.5c0-3,2.5-3.1,5.5-3.1h2.2c3,0,5.5,0.3,5.5,3.1v2.2H11.5V8.5z"/>
<g>
	<g>
		<path fill="#B3DBF4" d="M24.5,27.9c0,3-2.5,3.1-5.5,3.1h-2.2c-3,0-5.5-0.3-5.5-3.1v-2.2h13.2C24.5,25.6,24.5,27.9,24.5,27.9z"/>
		<path fill="#46505D" d="M19.2,31.5H17c-2.5,0-5.9,0-5.9-3.6v-2.2c0-0.3,0.3-0.5,0.5-0.5h13.2c0.3,0,0.5,0.3,0.5,0.5v2.2
			C25,31.5,21.6,31.5,19.2,31.5z M12,26.2v1.7c0,2.2,1.4,2.6,4.8,2.6H19c3.4,0,4.8-0.4,4.8-2.6v-1.7H12z"/>
	</g>
	<g>
		<line fill="none" x1="11.5" y1="10.4" x2="24.3" y2="10.4"/>
		<path fill="#46505D" d="M24.3,11H11.5c-0.3,0-0.5-0.3-0.5-0.5s0.3-0.5,0.5-0.5h12.9c0.3,0,0.5,0.3,0.5,0.5S24.6,11,24.3,11z"/>
	</g>
	<g>
		<line fill="none" x1="11.5" y1="25.6" x2="24.5" y2="25.6"/>
		<path fill="#46505D" d="M24.5,26.2h-13c-0.3,0-0.5-0.3-0.5-0.5c0-0.3,0.3-0.5,0.5-0.5h13.2c0.3,0,0.5,0.3,0.5,0.5
			C25.2,25.9,24.8,26.2,24.5,26.2z"/>
	</g>
	<circle fill="#46505D" cx="18" cy="28.3" r="1.4"/>
	<path fill="#46505D" d="M19.8,8.1c0,0.3-0.3,0.5-0.5,0.5h-2.6c-0.3,0-0.5-0.3-0.5-0.5l0,0c0-0.4,0.3-0.5,0.5-0.5h2.6
		C19.6,7.6,19.8,7.7,19.8,8.1L19.8,8.1z"/>
</g>
<g>
	<path fill="#46505D" d="M19.2,31.8H17c-2.6,0-6.3,0-6.3-3.9v-19C10.7,5,14.2,5,17,5h2.2c2.6,0,6.3,0,6.3,3.9v19
		C25.4,31.8,21.8,31.8,19.2,31.8z M16.8,6.4c-3.4,0-4.7,0.4-4.7,2.3v19c0,2,1.2,2.3,4.7,2.3H19c3.4,0,4.7-0.4,4.7-2.3V8.9
		c0-2-1.2-2.3-4.7-2.3C19,6.4,16.8,6.4,16.8,6.4z"/>
	<g>
		<line fill="none" x1="11.5" y1="10.4" x2="24.5" y2="10.4"/>
		<path fill="#46505D" d="M24.5,11h-13c-0.3,0-0.5-0.3-0.5-0.5s0.3-0.5,0.5-0.5h13.2c0.3,0,0.5,0.3,0.5,0.5S24.8,11,24.5,11z"/>
	</g>
	<g>
		<line fill="none" x1="11.5" y1="25.6" x2="24.5" y2="25.6"/>
		<path fill="#46505D" d="M24.5,26.2h-13c-0.3,0-0.5-0.3-0.5-0.5c0-0.3,0.3-0.5,0.5-0.5h13.2c0.3,0,0.5,0.3,0.5,0.5
			C25.2,25.9,24.8,26.2,24.5,26.2z"/>
	</g>
	<circle fill="#46505D" cx="18" cy="28.3" r="1.4"/>
	<path fill="#46505D" d="M19.8,8.1c0,0.3-0.3,0.5-0.5,0.5h-2.6c-0.3,0-0.5-0.3-0.5-0.5l0,0c0-0.4,0.3-0.5,0.5-0.5h2.6
		C19.6,7.6,19.8,7.7,19.8,8.1L19.8,8.1z"/>
</g>
</svg>
