<?xml version="1.0" encoding="utf-8"?>
<!-- Generator: Adobe Illustrator 18.1.1, SVG Export Plug-In . SVG Version: 6.00 Build 0)  -->
<svg version="1.1" id="Layer_1" xmlns="http://www.w3.org/2000/svg" xmlns:xlink="http://www.w3.org/1999/xlink" x="0px" y="0px"
	 viewBox="0 0 446 103" enable-background="new 0 0 446 103" xml:space="preserve">
<g>
	<linearGradient id="SVGID_1_" gradientUnits="userSpaceOnUse" x1="365.1071" y1="40.708" x2="522.282" y2="40.708">
		<stop  offset="0" style="stop-color:#C07529"/>
		<stop  offset="6.875926e-02" style="stop-color:#C57C2C"/>
		<stop  offset="0.499" style="stop-color:#DFA543"/>
		<stop  offset="0.8225" style="stop-color:#F3C458"/>
		<stop  offset="1" style="stop-color:#FDD161"/>
	</linearGradient>
	<polygon fill="url(#SVGID_1_)" points="365.1,0.7 445.8,0.7 421.9,40.7 445.8,80.7 365.1,80.7 	"/>
	
		<linearGradient id="SVGID_2_" gradientUnits="userSpaceOnUse" x1="312.4402" y1="40.708" x2="469.615" y2="40.708" gradientTransform="matrix(-1 0 0 1 393.333 0)">
		<stop  offset="0" style="stop-color:#C07529"/>
		<stop  offset="6.875926e-02" style="stop-color:#C57C2C"/>
		<stop  offset="0.499" style="stop-color:#DFA543"/>
		<stop  offset="0.8225" style="stop-color:#F3C458"/>
		<stop  offset="1" style="stop-color:#FDD161"/>
	</linearGradient>
	<polygon fill="url(#SVGID_2_)" points="80.9,0.7 0.2,0.7 24.1,40.7 0.2,80.7 80.9,80.7 	"/>
	<g>
		<polygon fill="#FCEE21" points="405.2,29.3 365.1,0.7 365.1,42.7 		"/>
		<polygon fill="#FCEE21" points="40.8,29.3 80.9,0.7 80.9,42.7 		"/>
		<rect x="40.7" y="29.3" fill="#FDD161" width="364.7" height="73"/>
	</g>
</g>
<g>
	<rect x="274.6" y="47.2" fill="#535049" width="0.4" height="41.1"/>
	<path fill="#535049" d="M296.9,64.2h-1c-0.2-2.7-2.1-4.6-4.9-4.6c-5,0-5.8,5.7-5.8,9.6c0,4.1,0.8,9.1,5.5,9.2
		c1.9,0.1,3.9-1.1,3.8-3.8v-2.2c0-1-0.3-1.4-1-1.4h-1.1v-0.8h6.8v0.8h-0.7c-0.9,0-1,0.4-1,1.7V79h-0.8c-0.1-0.3-0.2-0.7-0.9-0.7
		c-0.9,0-2.2,0.8-5.1,0.8c-6.6,0-8.8-4.5-8.8-10.4c0-5.4,3.3-10,9-10c1.4,0,2.3,0.2,3,0.4c0.7,0.2,1.2,0.4,1.6,0.4
		c0.3,0,0.4-0.3,0.5-0.7h1V64.2z"/>
	<path fill="#535049" d="M309.8,71.2c-0.1-3.3-0.7-5.6-2.8-5.6c-2.1,0-2.8,2.4-2.9,5.6H309.8z M304.1,72c0,4.6,0.7,6.4,3.2,6.4
		c2.6,0,4.2-1.7,4.2-4.3h1.1c0,3.2-2.3,5.1-5.4,5.1c-4.2,0-6.3-3.3-6.3-7.2c0-3.9,2.1-7.2,6.3-7.2c3.9,0,5.7,3.8,5.6,7.2H304.1z"/>
	<path fill="#535049" d="M314.6,77.9h1.3c1,0,1-0.5,1-1.6v-7.5c0-2.3-0.1-2.9-0.9-2.9h-1.4v-0.8h1.3c1.9,0,3.1-0.2,3.6-0.4v2.4h0.1
		c1.1-1.6,2.5-2.4,4.5-2.4c2.6,0,4.2,1.3,4.2,4v7c0,1.7,0,2.2,0.9,2.2h1.2v0.8h-7v-0.8h1c1,0,1.1-0.5,1.1-2.2v-6.4
		c0-1.6-0.5-3.3-2.6-3.3c-2.8,0-3.3,3-3.3,5.2v5c0,1.2,0.2,1.6,1,1.6h1.2v0.8h-7.1V77.9z"/>
	<path fill="#535049" d="M330.6,65.2h1.3c1.4,0,3.3-0.2,3.9-0.4c-0.1,0.9-0.2,1.8-0.2,2.7v6.8c0,2.1,0.6,3.6,2.5,3.6
		c2.1,0,3.3-2,3.3-5.1v-4.3c0-2.3,0-2.5-1-2.5h-1.2v-0.8h1.3c1.4,0,3.3-0.2,3.9-0.4c-0.1,0.9-0.2,1.8-0.2,2.7v8.3
		c0,1.7,0,2.2,0.9,2.2h1.2v0.8h-2.3c-1,0-1.9,0.1-2.4,0.1v-2.2h-0.1c-0.8,1.6-2.3,2.5-4.3,2.5c-3.7,0-4.4-1.5-4.4-4.4v-6
		c0-2.3-0.1-2.9-0.9-2.9h-1.4V65.2z"/>
	<path fill="#535049" d="M350.6,58.8c1,0,1.9,0.8,1.9,1.9c0,1-0.8,1.9-1.9,1.9c-1,0-1.9-0.9-1.9-1.9
		C348.8,59.6,349.7,58.8,350.6,58.8 M347.1,77.9h1.2c0.7,0,1-0.3,1-1.9v-8.3c0-1.4,0-1.8-1-1.8h-1.2v-0.8h1.7c1.3,0,2.8-0.2,3.4-0.4
		c-0.1,0.5-0.1,1.4-0.1,2.8v8.5c0,1.5,0.3,1.9,1,1.9h1.2v0.8h-7.1V77.9z"/>
	<path fill="#535049" d="M363.3,65.9h-3.2v10.6c0,0.8,0.4,1.3,1.1,1.3c1.1,0,1.3-1.1,1.3-2.5v-0.4h1.1v0.5c0,2.2-0.4,3.7-3.3,3.7
		c-2.2,0-3-1.1-3-3.2v-10h-2.3v-0.8c2.6-0.1,4-2.3,4.1-4.7h0.9v4.7h3.2V65.9z"/>
	<path fill="#535049" d="M364.4,65.2h6.6v0.8H370c-0.5,0-1,0.1-1,0.7c0,0.4,0.2,0.8,0.5,1.7l2.7,7.1h0.1l2.7-7
		c0.3-0.8,0.5-1.5,0.5-1.8c0-0.5-0.3-0.6-0.8-0.6h-0.9v-0.8h4.3v0.8h-0.3c-0.6,0-0.7,0.2-1.9,3.2l-4.5,11.7
		c-0.8,1.9-1.5,4.2-3.9,4.2c-1.3,0-2.6-0.7-2.6-2.2c0-1,0.6-1.8,1.6-1.8c0.9,0,1.5,0.5,1.5,1.4c0,0.6-0.4,0.8-0.4,1
		c0,0.2,0.2,0.3,0.6,0.3c0.9,0,1.6-1.4,1.9-2.2l0.9-2.4l-4.3-11c-0.6-1.6-0.8-2.2-1.6-2.2h-0.6V65.2z"/>
	<path fill="#535049" d="M71.7,76.1c-2.9-2.6-3.7-5.9-3.7-8.9c0-2,0.6-5.6,3.5-8.2c2.2-2,5-3.2,9.5-3.2c1.9,0,3,0.1,4.4,0.3
		c1.1,0.1,2.1,0.4,3,0.5c0.3,0,0.5,0.2,0.5,0.4c0,0.2-0.1,0.6-0.2,1.7c-0.1,1,0,2.6-0.1,3.2c0,0.5-0.1,0.7-0.4,0.7
		c-0.2,0-0.3-0.2-0.3-0.7c0-0.9-0.4-2-1.2-2.8c-1-1-3.3-1.9-6.1-1.9c-2.6,0-4.3,0.7-5.6,1.9c-2.2,2-2.8,4.9-2.8,7.8
		c0,7.1,5.4,10.7,9.5,10.7c2.7,0,4.3-0.3,5.5-1.7c0.5-0.6,0.9-1.4,1-2c0.1-0.5,0.1-0.6,0.4-0.6c0.2,0,0.3,0.2,0.3,0.4
		c0,0.4-0.4,3-0.7,4c-0.1,0.5-0.3,0.7-0.8,0.9c-1.2,0.5-3.5,0.7-5.4,0.7C77.9,79.3,74.5,78.4,71.7,76.1"/>
	<path fill="#535049" d="M102.6,69.6c0.1,0,0.2-0.1,0.1-0.2l-2.7-7.4c0-0.1-0.1-0.3-0.2-0.3c-0.1,0-0.2,0.1-0.2,0.3L97,69.4
		c0,0.1,0,0.2,0.1,0.2H102.6z M96.5,71.1c-0.2,0-0.2,0.1-0.3,0.2l-1.6,4.3c-0.3,0.8-0.5,1.5-0.5,1.8c0,0.5,0.3,0.9,1.2,0.9h0.4
		c0.4,0,0.5,0.1,0.5,0.2c0,0.2-0.2,0.3-0.5,0.3c-1,0-2.3-0.1-3.2-0.1c-0.3,0-2,0.1-3.5,0.1c-0.4,0-0.6-0.1-0.6-0.3
		c0-0.2,0.1-0.2,0.4-0.2c0.3,0,0.7,0,0.9-0.1c1.4-0.2,1.9-1.2,2.6-2.7l7.5-18.9c0.4-0.9,0.5-1.2,0.8-1.2c0.3,0,0.5,0.3,0.8,1
		c0.7,1.6,5.5,13.9,7.4,18.5c1.1,2.7,2,3.1,2.6,3.3c0.4,0.1,0.9,0.1,1.3,0.1c0.2,0,0.4,0,0.4,0.2c0,0.2-0.3,0.3-1.4,0.3
		c-1.1,0-3.3,0-5.7-0.1c-0.5,0-0.9,0-0.9-0.2c0-0.2,0.1-0.2,0.4-0.3c0.2-0.1,0.4-0.3,0.3-0.7l-2.4-6.4c-0.1-0.2-0.2-0.2-0.3-0.2
		H96.5z"/>
	<path fill="#535049" d="M117.1,74.8c0.1,2.3,0.4,3.1,1,3.3c0.5,0.2,1.1,0.2,1.6,0.2c0.3,0,0.5,0.1,0.5,0.2c0,0.2-0.3,0.3-0.7,0.3
		c-2,0-3.2-0.1-3.7-0.1c-0.3,0-1.7,0.1-3.2,0.1c-0.4,0-0.7,0-0.7-0.3c0-0.2,0.2-0.2,0.5-0.2c0.4,0,0.9,0,1.3-0.2
		c0.8-0.2,0.9-1.1,0.9-3.7l0.3-17.8c0-0.6,0.1-1,0.4-1c0.3,0,0.6,0.4,1.1,0.9c0.4,0.4,4.9,5.3,9.3,9.6c2,2,6.1,6.4,6.6,6.8h0.1
		l-0.3-13.5c0-1.8-0.3-2.4-1-2.7c-0.4-0.2-1.2-0.2-1.6-0.2c-0.4,0-0.5-0.1-0.5-0.3c0-0.2,0.3-0.3,0.8-0.3c1.6,0,3,0.1,3.6,0.1
		c0.3,0,1.5-0.1,2.9-0.1c0.4,0,0.7,0,0.7,0.3c0,0.2-0.2,0.3-0.5,0.3c-0.3,0-0.5,0-0.9,0.1c-0.8,0.2-1.1,0.9-1.1,2.6l-0.3,18.9
		c0,0.7-0.1,0.9-0.4,0.9c-0.3,0-0.7-0.3-1-0.7c-1.9-1.8-5.7-5.7-8.9-8.8c-3.3-3.2-6.6-7-7.1-7.6h-0.1L117.1,74.8z"/>
	<path fill="#535049" d="M150.3,69.6c0.1,0,0.2-0.1,0.1-0.2l-2.7-7.4c0-0.1-0.1-0.3-0.2-0.3c-0.1,0-0.2,0.1-0.2,0.3l-2.8,7.4
		c0,0.1,0,0.2,0.1,0.2H150.3z M144.1,71.1c-0.2,0-0.2,0.1-0.3,0.2l-1.6,4.3c-0.3,0.8-0.4,1.5-0.4,1.8c0,0.5,0.3,0.9,1.2,0.9h0.4
		c0.4,0,0.4,0.1,0.4,0.2c0,0.2-0.2,0.3-0.5,0.3c-1,0-2.3-0.1-3.2-0.1c-0.3,0-2,0.1-3.5,0.1c-0.4,0-0.6-0.1-0.6-0.3
		c0-0.2,0.1-0.2,0.4-0.2c0.3,0,0.7,0,0.9-0.1c1.4-0.2,1.9-1.2,2.5-2.7l7.5-18.9c0.4-0.9,0.5-1.2,0.8-1.2c0.3,0,0.5,0.3,0.8,1
		c0.7,1.6,5.5,13.9,7.4,18.5c1.1,2.7,2,3.1,2.6,3.3c0.5,0.1,0.9,0.1,1.3,0.1c0.2,0,0.4,0,0.4,0.2c0,0.2-0.3,0.3-1.4,0.3
		c-1.1,0-3.3,0-5.7-0.1c-0.5,0-0.9,0-0.9-0.2c0-0.2,0.1-0.2,0.4-0.3c0.2-0.1,0.4-0.3,0.3-0.7l-2.4-6.4c-0.1-0.2-0.1-0.2-0.3-0.2
		H144.1z"/>
	<path fill="#535049" d="M163.5,76.1c-2.9-2.6-3.7-5.9-3.7-8.9c0-2,0.6-5.6,3.5-8.2c2.2-2,5-3.2,9.5-3.2c1.9,0,3,0.1,4.4,0.3
		c1.1,0.1,2.1,0.4,3,0.5c0.3,0,0.4,0.2,0.4,0.4c0,0.2-0.1,0.6-0.1,1.7c-0.1,1,0,2.6-0.1,3.2c0,0.5-0.1,0.7-0.4,0.7
		c-0.2,0-0.3-0.2-0.3-0.7c0-0.9-0.4-2-1.2-2.8c-1-1-3.3-1.9-6.1-1.9c-2.6,0-4.3,0.7-5.6,1.9c-2.2,2-2.8,4.9-2.8,7.8
		c0,7.1,5.4,10.7,9.5,10.7c2.7,0,4.3-0.3,5.5-1.7c0.5-0.6,0.9-1.4,1-2c0.1-0.5,0.2-0.6,0.4-0.6c0.2,0,0.3,0.2,0.3,0.4
		c0,0.4-0.4,3-0.7,4c-0.1,0.5-0.3,0.7-0.8,0.9c-1.2,0.5-3.5,0.7-5.4,0.7C169.7,79.3,166.2,78.4,163.5,76.1"/>
	<path fill="#535049" d="M186.6,76.1c-2.9-2.6-3.7-5.9-3.7-8.9c0-2,0.6-5.6,3.5-8.2c2.2-2,5-3.2,9.5-3.2c1.9,0,3,0.1,4.4,0.3
		c1.1,0.1,2.1,0.4,3,0.5c0.3,0,0.4,0.2,0.4,0.4c0,0.2-0.1,0.6-0.2,1.7c-0.1,1,0,2.6-0.1,3.2c0,0.5-0.1,0.7-0.4,0.7
		c-0.2,0-0.3-0.2-0.3-0.7c0-0.9-0.4-2-1.2-2.8c-1-1-3.3-1.9-6.1-1.9c-2.6,0-4.3,0.7-5.6,1.9c-2.2,2-2.8,4.9-2.8,7.8
		c0,7.1,5.4,10.7,9.5,10.7c2.7,0,4.3-0.3,5.5-1.7c0.5-0.6,0.9-1.4,1-2c0.1-0.5,0.1-0.6,0.4-0.6c0.2,0,0.3,0.2,0.3,0.4
		c0,0.4-0.4,3-0.7,4c-0.2,0.5-0.3,0.7-0.8,0.9c-1.2,0.5-3.5,0.7-5.4,0.7C192.8,79.3,189.4,78.4,186.6,76.1"/>
	<path fill="#535049" d="M226.4,68.1c0-6.7-3.9-10.9-8.8-10.9c-3.4,0-7.4,1.9-7.4,9.4c0,6.2,3.5,11.2,9.2,11.2
		C221.5,77.8,226.4,76.8,226.4,68.1 M206,67.6c0-5.1,3.4-11.8,12.4-11.8c7.5,0,12.1,4.3,12.1,11.2c0,6.9-4.8,12.3-12.4,12.3
		C209.5,79.3,206,72.9,206,67.6"/>
	<path fill="#535049" d="M239.5,67.3c0,0.3,0.1,0.4,0.3,0.5c0.6,0.2,1.5,0.3,2.3,0.3c1.2,0,1.6-0.1,2.1-0.5c0.9-0.7,1.8-2,1.8-4.5
		c0-4.3-2.8-5.5-4.6-5.5c-0.7,0-1.3,0-1.6,0.1c-0.2,0.1-0.3,0.2-0.3,0.4V67.3z M236,64.9c0-4.6,0-5.4-0.1-6.4
		c-0.1-1-0.3-1.5-1.3-1.7c-0.2-0.1-0.8-0.1-1.2-0.1c-0.3,0-0.5-0.1-0.5-0.3c0-0.2,0.2-0.3,0.7-0.3c1.6,0,3.5,0.1,4.1,0.1
		c1,0,3.3-0.1,4.2-0.1c1.9,0,3.9,0.2,5.5,1.3c0.8,0.6,2,2.1,2,4.1c0,2.2-0.9,4.3-4,6.7c2.7,3.4,4.7,6,6.5,7.9c1.7,1.7,2.9,2,3.4,2
		c0.3,0.1,0.6,0.1,0.8,0.1c0.2,0,0.4,0.1,0.4,0.2c0,0.2-0.2,0.3-0.6,0.3h-2.9c-1.7,0-2.4-0.1-3.2-0.6c-1.3-0.7-2.4-2.1-4.1-4.4
		c-1.2-1.7-2.6-3.7-3-4.1c-0.2-0.2-0.3-0.2-0.5-0.2l-2.6-0.1c-0.1,0-0.2,0.1-0.2,0.2v0.4c0,2.8,0,5.2,0.2,6.4
		c0.1,0.9,0.3,1.5,1.2,1.6c0.4,0.1,1.1,0.1,1.5,0.1c0.2,0,0.4,0.1,0.4,0.2c0,0.2-0.2,0.3-0.6,0.3c-1.7,0-4-0.1-4.4-0.1
		c-0.6,0-2.5,0.1-3.7,0.1c-0.4,0-0.6-0.1-0.6-0.3c0-0.1,0.1-0.2,0.5-0.2c0.4,0,0.8-0.1,1.1-0.1c0.6-0.1,0.7-0.8,0.9-1.6
		c0.2-1.3,0.2-3.6,0.2-6.4V64.9z"/>
	<path fill="#535049" d="M274.8,58.4c-3.2-2.1-7.3-2.1-10.5-2.1c-1.8,0-3.7,0.1-4.6,0.1c-0.8,0-2.7-0.1-4.3-0.1
		c-0.5,0-0.7,0.1-0.7,0.3c0,0.2,0.2,0.3,0.5,0.3c0.4,0,0.9,0,1.2,0.1c1,0.2,1.2,0.7,1.3,1.7c0.1,1,0.1,1.8,0.1,6.4v5.3
		c0,2.8,0,5.1-0.2,6.4c-0.1,0.9-0.3,1.5-0.9,1.6c-0.3,0.1-0.6,0.1-1.1,0.1c-0.4,0-0.5,0.1-0.5,0.2c0,0.2,0.2,0.3,0.6,0.3
		c1.2,0,3.1-0.1,3.8-0.1c1.5,0,4.2,0.4,6.4,0.4c4.3,0,7.2-1.3,8.9-2.5V72c-0.4,1.4-1,2.7-2.1,3.6c-1.8,1.6-3.8,2.2-6.9,2.2
		c-2.4,0-3.5-0.6-3.9-1.2c-0.2-0.3-0.3-1.5-0.3-2.3c0-0.6-0.1-2.9-0.1-6.1v-3.8c0-2.4,0-5,0-6c0-0.3,0.1-0.5,0.4-0.6
		c0.2-0.1,1.3-0.2,1.9-0.2c2.3,0,5.8,0.4,8.5,3c0.9,0.8,1.9,2.3,2.4,4.3V58.4z"/>
</g>
</svg>
