<svg version="1.1" id="Layer_1" xmlns="http://www.w3.org/2000/svg" xmlns:xlink="http://www.w3.org/1999/xlink" x="0px" y="0px" viewBox="0 0 161 161" enable-background="new 0 0 161 161" xml:space="preserve" width="32px" height="32px" class="footer-subnav__social__mail">
    <circle fill="#F3F3F3" cx="80.5" cy="80.5" r="77.5" class="circle-fill"/>
    <path fill="#A5AEB3" d="M80.5,160.5c-44.1,0-80-35.9-80-80c0-44.1,35.9-80,80-80c44.1,0,80,35.9,80,80 C160.5,124.6,124.6,160.5,80.5,160.5z M80.5,5.5c-41.4,0-75,33.7-75,75c0,41.4,33.7,75,75,75c41.4,0,75-33.7,75-75 C155.5,39.1,121.9,5.5,80.5,5.5z" class="circle-stroke"/>
    <path fill="#464F5C" d="M91.4,80.3l30.3,33.9H39.3l30.3-33.9l10.9,9.5L91.4,80.3z M121.2,46.8H39.8l40.7,35.6L121.2,46.8z M95.6,76.6l29.8,33.4V50.5L95.6,76.6z M35.5,50.5V110l29.8-33.4L35.5,50.5z" class="icon"/>
</svg>