<?xml version="1.0" encoding="utf-8"?>
<!-- Generator: Adobe Illustrator 18.1.1, SVG Export Plug-In . SVG Version: 6.00 Build 0)  -->
<svg version="1.1" id="Layer_1" xmlns="http://www.w3.org/2000/svg" xmlns:xlink="http://www.w3.org/1999/xlink" x="0px" y="0px"
	 viewBox="14 -15 32 32" enable-background="new 14 -15 32 32" xml:space="preserve">
<circle fill="#464F5C" cx="30" cy="1" r="15.4"/>
<path fill="#A5AEB3" d="M30,16.9c-8.8,0-15.9-7.1-15.9-15.9S21.2-14.9,30-14.9S45.9-7.8,45.9,1S38.8,16.9,30,16.9z M30-13.9
	c-8.2,0-14.9,6.7-14.9,14.9c0,8.2,6.7,14.9,14.9,14.9c8.2,0,14.9-6.7,14.9-14.9C44.9-7.2,38.2-13.9,30-13.9z"/>
<path fill="#FCFCFC" d="M32.2,1l6,6.7H21.8l6-6.7L30,2.8L32.2,1z M38.1-5.7H21.9L30,1.4L38.1-5.7z M33,0.2l5.9,6.6V-5L33,0.2z
	 M21.1-5V6.9L27,0.2L21.1-5z"/>
</svg>
