<?xml version="1.0" encoding="utf-8"?>
<!-- Generator: Adobe Illustrator 18.1.1, SVG Export Plug-In . SVG Version: 6.00 Build 0)  -->
<svg version="1.1" id="Layer_1" xmlns="http://www.w3.org/2000/svg" xmlns:xlink="http://www.w3.org/1999/xlink" x="0px" y="0px"
	 viewBox="0 0 2018.8 23" enable-background="new 0 0 2018.8 23" xml:space="preserve">
<polygon fill="#EF6228" points="0.2,0 0.2,22.7 23.7,7.5 45.6,23 67.6,7.5 89.3,23 111.3,7.5 133.2,23 155.2,7.5 177.2,23 
	199.1,7.5 220.9,23 242.8,7.5 264.8,23 286.8,7.5 308.7,23 330.4,7.5 352.4,23 374.4,7.5 396.3,23 418.3,7.5 440,23 462,7.5 
	483.9,23 505.9,7.5 527.9,23 549.6,7.5 571.5,23 593.5,7.5 615.5,23 637.2,7.5 659.1,23 681.1,7.5 703.1,23 725,7.5 746.8,23 
	768.7,7.5 790.7,23 812.7,7.5 834.6,23 856.3,7.5 878.3,23 900.3,7.5 922.2,23 944.2,7.5 965.9,23 987.9,7.5 1009.8,23 1031.8,7.5 
	1053.5,23 1075.5,7.5 1097.4,23 1119.4,7.5 1141.4,23 1163.1,7.5 1185,23 1207,7.5 1229,23 1250.7,7.5 1272.7,23 1294.6,7.5 
	1316.6,23 1338.3,7.5 1360.3,23 1382.2,7.5 1404.2,23 1425.9,7.5 1447.9,23 1469.8,7.5 1491.8,23 1513.5,7.5 1535.5,23 1557.4,7.5 
	1579.4,23 1601.1,7.5 1623.1,23 1645,7.5 1667,23 1688.7,7.5 1710.7,23 1732.7,7.5 1754.6,23 1776.3,7.5 1798.3,23 1820.3,7.5 
	1842.2,23 1863.9,7.5 1885.9,23 1907.9,7.5 1929.6,23 1951.5,7.5 1973.5,23 1995.5,7.5 2019,22.7 2019,0 "/>
</svg>
